<?xml version="1.0" encoding="utf-8"?>
<!-- Generator: Adobe Illustrator 27.2.0, SVG Export Plug-In . SVG Version: 6.00 Build 0)  -->
<svg version="1.1" id="katman_1" xmlns="http://www.w3.org/2000/svg" xmlns:xlink="http://www.w3.org/1999/xlink" x="0px" y="0px"
	 viewBox="0 0 1587.4 654.8" style="enable-background:new 0 0 1587.4 654.8;" xml:space="preserve">
<style type="text/css">
	.st0{fill:#29398E;}
</style>
<g>
	<path class="st0" d="M226.25,111.34c17.4,17.87,26.34,52.21,26.34,103.47c0,54.56-7.53,91.71-23.05,111.47
		c-15.52,19.75-44.21,29.63-86.07,29.63c-20.7,0-39.04-0.94-55.5-2.82v88.89c0,4.7-2.35,7.05-7.05,7.05h-68.2
		c-4.7,0-7.05-2.35-7.05-7.05V108.05c0-7.53,3.76-12.23,11.29-13.64c39.98-6.58,75.72-9.87,106.29-9.87
		C174.51,84.53,208.85,93.47,226.25,111.34z M87.97,155.08v127.46c8.94,1.41,20.22,2.35,33.39,2.35c20.69,0,33.86-3.76,39.98-11.76
		c6.11-8,8.94-25.87,8.94-53.15c0-25.87-2.35-42.8-7.06-51.74c-4.7-8.94-16.46-13.17-35.27-13.17H87.97z"/>
	<path class="st0" d="M448.24,90.17c5.17,0.94,8,4.23,8,9.88v47.97c0,4.7-2.82,7.05-8,7.05h-46.56c-21.16,0-28.69,4.23-28.69,23.52
		v167.44c0,5.17-2.35,7.53-7.05,7.53h-68.2c-4.7,0-7.05-2.35-7.05-7.53V156.49c0-28.69,7.53-47.5,23.04-57.38
		c15.52-9.88,38.1-14.58,67.26-14.58C408.26,84.53,430.84,86.41,448.24,90.17z"/>
	<path class="st0" d="M594.99,84.53c50.33,0,83.72,8.94,100.18,27.28c16.46,17.87,24.93,54.09,24.93,108.65
		c0,54.56-8.47,90.77-24.93,108.64c-16.46,17.87-49.85,26.81-100.18,26.81c-50.32,0-84.19-8.94-100.65-26.81
		c-16.46-17.87-24.46-54.09-24.46-108.64c0-54.56,8-90.77,24.46-108.65C510.8,93.47,544.66,84.53,594.99,84.53z M594.99,155.08
		c-17.4,0-29.16,4.23-34.8,13.17c-5.17,8.47-7.99,25.87-7.99,52.21c0,26.34,2.82,43.74,7.99,52.21c5.64,8.47,17.4,12.7,34.8,12.7
		c17.4,0,29.16-4.23,34.33-12.7c5.64-8.47,8.47-25.87,8.47-52.21c0-26.34-2.82-43.74-8.47-52.68
		C624.15,159.31,612.39,155.08,594.99,155.08z"/>
	<path class="st0" d="M848.97,2.17c4.23-1.41,7.06,1.88,7.06,7.53v79.06h40.45c5.17,0,8,2.35,8,7.05v45.62c0,5.18-2.82,7.53-8,7.53
		h-40.45v112.88c0,19.28,6.58,23.52,26.81,23.52h17.87c5.17,0,8,2.35,8,7.05v48.92c0,5.17-2.82,8.46-8,9.4
		c-18.34,3.29-33.86,5.18-46.56,5.18c-13.64,0-24.46-0.47-31.98-1.41c-7.05-0.94-15.05-3.29-23.99-7.05
		c-16.93-8-23.99-25.87-23.99-55.97V148.97h-28.22c-5.17,0-8-2.35-8-7.53V95.82c0-4.7,2.82-7.05,8-7.05h28.22V27.57
		c0-3.76,2.35-6.11,6.59-7.53L848.97,2.17z"/>
	<path class="st0" d="M1150.91,111.34c16.46,17.87,24.46,53.62,24.46,107.71v14.58c0,9.88-3.29,12.7-14.11,12.7h-146.74
		c0.47,16.46,3.76,27.28,9.88,31.98c6.59,4.7,19.75,7.05,39.04,7.05h86.54c4.7,0,7.05,2.35,7.05,7.05v47.97c0,4.23-2.35,7.05-6.58,8
		c-23.52,5.17-55.5,7.53-95.95,7.53c-49.38,0-82.31-8.94-98.77-26.81c-16.46-18.34-24.93-54.56-24.93-108.64
		c0-54.56,8.47-90.77,24.93-108.65c16.46-18.34,49.38-27.28,98.77-27.28C1102.94,84.53,1134.92,93.47,1150.91,111.34z
		 M1014.05,196.47h79.01c0-31.51-10.35-41.39-38.57-41.39C1025.8,155.08,1014.05,164.96,1014.05,196.47z"/>
	<path class="st0" d="M1285.9,86.88c4.7,0,7.05,2.35,7.05,7.53v251.63c0,5.17-2.35,7.53-7.05,7.53h-68.2c-4.7,0-7.05-2.35-7.05-7.53
		V94.41c0-5.17,2.35-7.53,7.05-7.53H1285.9z"/>
	<path class="st0" d="M1558.68,106.64c18.34,17.4,23.05,43.27,23.05,92.18v147.21c0,5.17-2.35,7.53-7.05,7.53h-68.2
		c-4.23,0-6.58-2.35-6.58-7.53V224.22c0-35.27,0-47.97-7.53-58.79c-7.53-10.82-15.52-10.35-38.57-10.35h-31.51v190.95
		c0,5.17-2.35,7.53-7.05,7.53h-69.14c-4.23,0-6.59-2.35-6.59-7.53V100.05c0-5.65,2.35-6.12,6.59-7.05
		c23.05-5.65,63.49-8.47,120.4-8.47C1514.94,84.53,1540.34,89.23,1558.68,106.64z"/>
	<path class="st0" d="M528.9,382.53c50.33,0,83.72,8.94,100.18,27.28c16.46,17.87,24.93,54.09,24.93,108.65
		c0,54.56-8.47,90.77-24.93,108.64c-16.46,17.87-49.85,26.81-100.18,26.81c-50.32,0-84.19-8.94-100.65-26.81
		c-16.46-17.87-24.46-54.09-24.46-108.64c0-54.56,8-90.77,24.46-108.65C444.72,391.46,478.58,382.53,528.9,382.53z M528.9,453.07
		c-17.4,0-29.16,4.23-34.8,13.17c-5.17,8.46-7.99,25.87-7.99,52.21c0,26.34,2.82,43.74,7.99,52.21c5.64,8.47,17.4,12.7,34.8,12.7
		c17.4,0,29.16-4.23,34.33-12.7c5.64-8.47,8.47-25.87,8.47-52.21c0-26.34-2.82-43.74-8.47-52.68
		C558.06,457.31,546.31,453.07,528.9,453.07z"/>
	<path class="st0" d="M890.11,390.05c5.17,1.41,8,4.7,8,9.87v45.62c0,5.18-2.82,7.53-8.47,7.53h-79.49c-17.4,0-29.16,4.23-34.8,12.7
		c-5.17,8.47-8,25.87-8,52.21c0,26.34,2.82,43.74,8,52.68c5.64,8.47,17.4,12.7,34.8,12.7h79.49c5.64,0,8.47,2.35,8.47,7.53v45.62
		c0,5.17-2.82,8.47-8,9.88c-20.22,5.17-47.03,7.53-79.96,7.53c-54.09,0-82.31-6.11-101.12-27.28
		c-18.81-22.11-23.52-51.74-23.52-108.64c0-45.62,3.76-71.96,13.64-94.07c16.93-33.39,47.03-39.98,111-41.39
		C843.08,382.53,869.89,384.88,890.11,390.05z"/>
	<path class="st0" d="M1153.02,404.63c18.34,17.4,23.05,43.27,23.05,92.18v147.21c0,5.17-2.35,7.53-7.05,7.53h-68.2
		c-4.23,0-6.58-2.35-6.58-7.53V522.21c0-35.27,0-47.97-7.53-58.79c-7.53-10.82-15.52-10.35-38.57-10.35h-31.51v190.95
		c0,5.17-2.35,7.53-7.05,7.53h-69.14c-4.23,0-6.59-2.35-6.59-7.53V398.05c0-5.65,2.35-6.11,6.59-7.05
		c23.04-5.65,63.49-8.47,120.4-8.47C1109.28,382.53,1134.68,387.23,1153.02,404.63z"/>
	<path class="st0" d="M1285.8,71.84c3.82,0,6.92-3.1,6.92-6.92V9.7c0-5.64-2.82-8.94-7.06-7.53l-68.2,17.87
		c-4.23,1.41-6.59,3.76-6.59,7.53v37.35c0,3.82,3.1,6.92,6.92,6.92H1285.8z"/>
</g>
</svg>
