<svg width="496" height="52" viewBox="0 0 496 52" fill="none" xmlns="http://www.w3.org/2000/svg">
<mask id="path-1-outside-1_1645_862" maskUnits="userSpaceOnUse" x="425" y="0.223633" width="71" height="52" fill="black">
<rect fill="white" x="425" y="0.223633" width="71" height="52"/>
<path fill-rule="evenodd" clip-rule="evenodd" d="M477.985 1.2536C476.625 1.38539 474.681 1.84379 473.482 2.31559C471.469 3.10777 468.703 4.87636 468.272 5.64661C468.147 5.87098 468.116 6.02439 468.143 6.30304C468.207 6.98094 468.677 7.39838 469.378 7.40196C469.737 7.40387 469.806 7.37113 470.356 6.94135C471.29 6.21183 472.308 5.5621 473.206 5.12357C478.579 2.49839 484.919 3.45167 488.929 7.48746C491.308 9.88226 492.578 13.1501 492.583 16.8901C492.585 18.2213 492.498 18.9743 492.214 20.1073C491.037 24.808 487.627 29.5757 480.006 37.1797C473.424 43.7468 470.065 46.6201 467.41 47.955C466.536 48.3947 466.001 48.5577 465.428 48.559C463.783 48.5627 460.911 46.8504 457.327 43.7293C455.97 42.5478 455.423 42.029 453.431 40.036C452.529 39.1344 451.734 38.3732 451.662 38.3446C451.362 38.2242 450.767 38.2801 450.509 38.4532C450.144 38.6976 449.886 39.2544 449.952 39.6522C450.022 40.0731 450.908 41.0566 453.123 43.1723C457.618 47.4645 460.699 49.6894 463.512 50.6724C464.308 50.9509 464.349 50.957 465.417 50.9547C466.402 50.9527 466.568 50.9322 467.123 50.7444C469.157 50.0569 471.919 48.1336 475.501 44.91C478.603 42.1194 484.292 36.4175 486.82 33.5659C491.2 28.6269 493.638 24.5458 494.609 20.5302C494.916 19.2585 495.003 18.4585 495 16.9117C494.997 14.8893 494.776 13.4329 494.205 11.6717C492.451 6.26102 488.032 2.46649 482.274 1.4268C481.425 1.27347 478.852 1.16955 477.985 1.2536ZM449.538 1.48421C444.771 1.97223 440.525 4.51732 438.043 8.37518C436.929 10.1072 436.219 12.0218 435.832 14.3421C435.612 15.6595 435.594 18.2063 435.798 19.3625C436.189 21.5885 436.788 23.3789 437.875 25.5674C438.426 26.6766 438.627 26.8803 439.209 26.9181C439.987 26.9686 440.507 26.5138 440.507 25.7835C440.507 25.4804 440.42 25.2365 440.028 24.4434C438.518 21.3906 437.946 18.9047 438.105 16.0887C438.37 11.4257 440.715 7.63196 444.665 5.4776C445.681 4.92326 447.12 4.41027 448.477 4.11822C449.358 3.92842 449.555 3.91403 451.269 3.91403C452.992 3.91403 453.177 3.92773 454.091 4.12309C456.085 4.54914 457.856 5.2929 459.442 6.37057C461.761 7.94609 463.143 9.58633 467.788 16.279C472.002 22.3494 473.833 24.5921 476.291 26.6903C478.096 28.2304 480.662 29.6413 481.619 29.6193C482.756 29.5931 483.16 28.0669 482.202 27.4137C482.064 27.3193 481.829 27.2086 481.68 27.1677C480.76 26.9153 478.834 25.6789 477.466 24.4635C475.416 22.6407 473.696 20.5104 470.122 15.3654C466.253 9.796 464.783 7.87719 463.148 6.25926C460.473 3.61201 456.995 1.94528 453.235 1.50941C452.633 1.4396 450.14 1.42262 449.538 1.48421ZM455.39 14.1034C455.048 14.2269 455.007 14.2547 453.828 15.1645L452.887 15.8902L452.673 15.6469C451.823 14.6798 451.623 14.5679 450.742 14.5676C450.259 14.5674 450.039 14.6023 449.842 14.7101C449.475 14.9115 447.212 16.6411 446.949 16.9217C446.43 17.4745 446.266 18.4735 446.578 19.1721C446.663 19.3606 447.615 20.7007 448.694 22.1501L450.656 24.7856L449.1 25.9658C447.912 26.8667 439.44 33.3157 438.056 34.3723L437.824 34.5491L436.195 32.3613C433.638 28.9293 433.75 29.0639 433.255 28.8081C432.702 28.5217 432.01 28.4964 431.467 28.7429C431.114 28.9025 428.793 30.6518 428.492 30.9838C427.815 31.7319 427.793 32.8078 428.434 33.7552L428.765 34.2445L427.723 35.0393C427.15 35.4765 426.573 35.9652 426.442 36.1253C425.983 36.6862 425.86 37.6739 426.174 38.2877C426.245 38.426 426.81 39.2214 427.43 40.0552C428.049 40.8891 428.528 41.5994 428.493 41.6336C428.458 41.6679 428.092 41.957 427.679 42.2762C427.267 42.5953 426.87 42.9491 426.796 43.0625C426.642 43.298 426.617 43.8434 426.748 44.091C426.9 44.379 429.491 47.8282 429.704 48.027C429.876 48.1875 429.982 48.2173 430.377 48.2173H430.845L431.693 47.5777C432.409 47.0368 432.555 46.9545 432.638 47.0448C432.692 47.1034 433.197 47.7743 433.76 48.5355C434.323 49.2969 434.877 50.0114 434.993 50.1234C435.481 50.5989 436.389 50.7841 437.071 50.5472C437.23 50.492 437.838 50.0859 438.422 49.6447C439.006 49.2035 439.521 48.8389 439.567 48.8345C439.613 48.83 439.801 49.0112 439.985 49.2372C440.173 49.4682 440.5 49.751 440.733 49.8833C441.096 50.0895 441.217 50.1183 441.711 50.1156C442.425 50.1119 442.589 50.0276 444.032 48.926C445.414 47.872 445.649 47.6439 445.859 47.1596C446.06 46.6945 446.082 45.9261 445.905 45.5031C445.841 45.3503 444.906 44.0407 443.826 42.5927C442.746 41.1449 441.862 39.9294 441.862 39.8918C441.862 39.8542 443.259 38.7609 444.966 37.4623C446.674 36.1637 449.54 33.9814 451.337 32.6129C454.467 30.2283 454.608 30.1304 454.732 30.2633C454.803 30.3396 455.649 31.464 456.612 32.7621C458.532 35.3509 458.764 35.6288 459.208 35.869C459.58 36.0699 460.562 36.1003 460.977 35.9237C461.121 35.862 461.843 35.3546 462.58 34.7962C464.045 33.6865 464.291 33.4064 464.441 32.673C464.582 31.9855 464.414 31.3853 463.891 30.7184C463.764 30.5562 463.694 30.4035 463.734 30.3758C464.598 29.7703 465.985 28.6193 466.13 28.3873C466.515 27.7703 466.563 26.9286 466.247 26.3163C466.163 26.1532 465.603 25.3662 465.003 24.5674C464.403 23.7686 463.913 23.0929 463.915 23.0659C463.917 23.039 464.274 22.7497 464.709 22.4231C465.66 21.7087 465.813 21.4959 465.773 20.946C465.745 20.5649 465.689 20.477 464.284 18.5976C462.267 15.9003 462.298 15.9122 460.651 17.1734C460.245 17.4849 459.904 17.728 459.893 17.7136C458.606 15.9476 457.449 14.4879 457.222 14.3427C456.681 13.9972 455.949 13.9015 455.39 14.1034ZM460.15 21.7607C462.315 24.6709 464.115 27.0903 464.15 27.1371C464.193 27.1935 463.921 27.4454 463.345 27.8831C462.867 28.2466 462.435 28.5567 462.385 28.5723C462.335 28.5878 462.088 28.3206 461.838 27.9786C461.302 27.2484 460.998 27.014 460.586 27.014C459.873 27.014 459.372 27.6322 459.505 28.3471C459.536 28.5152 459.995 29.1957 460.851 30.3396C461.565 31.2951 462.173 32.1158 462.202 32.1634C462.251 32.2447 460.305 33.7972 460.169 33.7845C460.137 33.7814 459.945 33.5502 459.742 33.2706C459.455 32.8757 448.97 18.7952 448.701 18.4429C448.66 18.3901 449 18.0833 449.649 17.5863C450.204 17.1605 450.686 16.8135 450.719 16.8153C450.753 16.8172 451.229 17.4252 451.778 18.1667C455.13 22.6955 457.509 25.8413 457.679 25.9695C457.966 26.1862 458.472 26.2182 458.794 26.04C459.103 25.8695 459.394 25.3994 459.395 25.0696C459.398 24.6473 459.535 24.8444 455.461 19.4133C454.743 18.4553 454.215 17.6844 454.251 17.6474C454.287 17.6112 454.704 17.288 455.178 16.929C455.859 16.4129 456.058 16.2965 456.127 16.3728C456.175 16.4259 457.985 18.8505 460.15 21.7607ZM462.524 19.94L463.167 20.807L462.918 21.0153C462.782 21.1299 462.636 21.2245 462.595 21.2256C462.554 21.2266 462.234 20.8454 461.884 20.3786L461.249 19.5297L461.544 19.2794C461.706 19.1417 461.849 19.0389 461.861 19.051C461.873 19.0631 462.171 19.4631 462.524 19.94ZM452.691 27.4995C453.03 27.9549 453.297 28.3347 453.285 28.3436C453.187 28.4157 444.228 35.2335 442.591 36.4815C440.811 37.8389 440.484 38.0614 440.398 37.9703C440.342 37.9113 440.04 37.5207 439.727 37.1023C439.289 36.5172 439.178 36.322 439.249 36.2569C439.3 36.2103 440.916 34.9768 442.84 33.5157C444.765 32.0546 447.61 29.8931 449.162 28.7124C450.714 27.5316 452.004 26.5894 452.029 26.6184C452.054 26.6475 452.352 27.044 452.691 27.4995ZM434.079 33.2189C434.983 34.4332 437.545 37.8724 439.773 40.8614C442.001 43.8505 443.814 46.3031 443.802 46.3119C443.688 46.3966 441.878 47.763 441.811 47.8155C441.748 47.8644 441.32 47.3444 440.362 46.0548C439.522 44.9227 438.918 44.1802 438.781 44.1083C438.493 43.9577 438.075 43.96 437.754 44.1141C437.398 44.2854 437.196 44.6469 437.196 45.1161C437.196 45.4712 437.235 45.5525 437.732 46.2339C438.026 46.6381 438.255 46.9807 438.24 46.9952C438.018 47.2077 436.53 48.2802 436.449 48.2858C436.388 48.2901 435.42 47.0621 434.265 45.5145C433.124 43.9862 431.303 41.5456 430.219 40.0911L428.246 37.4465L429.115 36.7792C429.592 36.4123 430.029 36.112 430.086 36.112C430.143 36.112 431.097 37.3282 432.206 38.8147C433.316 40.3013 434.455 41.8258 434.737 42.2027C435.282 42.9307 435.567 43.1462 435.992 43.1509C436.26 43.1539 436.703 42.9307 436.874 42.7069C437.056 42.4677 437.135 42.0207 437.045 41.7427C436.998 41.5998 436.275 40.5657 435.439 39.4446C434.602 38.3235 433.077 36.2815 432.049 34.9068C430.315 32.5864 430.191 32.4001 430.321 32.306C430.398 32.2503 430.867 31.8951 431.364 31.5167C432.052 30.9921 432.287 30.8503 432.351 30.9198C432.397 30.97 433.175 32.0045 434.079 33.2189ZM430.521 44.1887C430.844 44.6284 431.124 45.0309 431.144 45.0832C431.177 45.1721 430.835 45.4852 430.654 45.5317C430.609 45.5432 430.286 45.1757 429.936 44.7151L429.301 43.8777L429.58 43.6314C429.733 43.4959 429.876 43.386 429.896 43.3871C429.917 43.3883 430.198 43.749 430.521 44.1887Z"/>
</mask>
<path fill-rule="evenodd" clip-rule="evenodd" d="M477.985 1.2536C476.625 1.38539 474.681 1.84379 473.482 2.31559C471.469 3.10777 468.703 4.87636 468.272 5.64661C468.147 5.87098 468.116 6.02439 468.143 6.30304C468.207 6.98094 468.677 7.39838 469.378 7.40196C469.737 7.40387 469.806 7.37113 470.356 6.94135C471.29 6.21183 472.308 5.5621 473.206 5.12357C478.579 2.49839 484.919 3.45167 488.929 7.48746C491.308 9.88226 492.578 13.1501 492.583 16.8901C492.585 18.2213 492.498 18.9743 492.214 20.1073C491.037 24.808 487.627 29.5757 480.006 37.1797C473.424 43.7468 470.065 46.6201 467.41 47.955C466.536 48.3947 466.001 48.5577 465.428 48.559C463.783 48.5627 460.911 46.8504 457.327 43.7293C455.97 42.5478 455.423 42.029 453.431 40.036C452.529 39.1344 451.734 38.3732 451.662 38.3446C451.362 38.2242 450.767 38.2801 450.509 38.4532C450.144 38.6976 449.886 39.2544 449.952 39.6522C450.022 40.0731 450.908 41.0566 453.123 43.1723C457.618 47.4645 460.699 49.6894 463.512 50.6724C464.308 50.9509 464.349 50.957 465.417 50.9547C466.402 50.9527 466.568 50.9322 467.123 50.7444C469.157 50.0569 471.919 48.1336 475.501 44.91C478.603 42.1194 484.292 36.4175 486.82 33.5659C491.2 28.6269 493.638 24.5458 494.609 20.5302C494.916 19.2585 495.003 18.4585 495 16.9117C494.997 14.8893 494.776 13.4329 494.205 11.6717C492.451 6.26102 488.032 2.46649 482.274 1.4268C481.425 1.27347 478.852 1.16955 477.985 1.2536ZM449.538 1.48421C444.771 1.97223 440.525 4.51732 438.043 8.37518C436.929 10.1072 436.219 12.0218 435.832 14.3421C435.612 15.6595 435.594 18.2063 435.798 19.3625C436.189 21.5885 436.788 23.3789 437.875 25.5674C438.426 26.6766 438.627 26.8803 439.209 26.9181C439.987 26.9686 440.507 26.5138 440.507 25.7835C440.507 25.4804 440.42 25.2365 440.028 24.4434C438.518 21.3906 437.946 18.9047 438.105 16.0887C438.37 11.4257 440.715 7.63196 444.665 5.4776C445.681 4.92326 447.12 4.41027 448.477 4.11822C449.358 3.92842 449.555 3.91403 451.269 3.91403C452.992 3.91403 453.177 3.92773 454.091 4.12309C456.085 4.54914 457.856 5.2929 459.442 6.37057C461.761 7.94609 463.143 9.58633 467.788 16.279C472.002 22.3494 473.833 24.5921 476.291 26.6903C478.096 28.2304 480.662 29.6413 481.619 29.6193C482.756 29.5931 483.16 28.0669 482.202 27.4137C482.064 27.3193 481.829 27.2086 481.68 27.1677C480.76 26.9153 478.834 25.6789 477.466 24.4635C475.416 22.6407 473.696 20.5104 470.122 15.3654C466.253 9.796 464.783 7.87719 463.148 6.25926C460.473 3.61201 456.995 1.94528 453.235 1.50941C452.633 1.4396 450.14 1.42262 449.538 1.48421ZM455.39 14.1034C455.048 14.2269 455.007 14.2547 453.828 15.1645L452.887 15.8902L452.673 15.6469C451.823 14.6798 451.623 14.5679 450.742 14.5676C450.259 14.5674 450.039 14.6023 449.842 14.7101C449.475 14.9115 447.212 16.6411 446.949 16.9217C446.43 17.4745 446.266 18.4735 446.578 19.1721C446.663 19.3606 447.615 20.7007 448.694 22.1501L450.656 24.7856L449.1 25.9658C447.912 26.8667 439.44 33.3157 438.056 34.3723L437.824 34.5491L436.195 32.3613C433.638 28.9293 433.75 29.0639 433.255 28.8081C432.702 28.5217 432.01 28.4964 431.467 28.7429C431.114 28.9025 428.793 30.6518 428.492 30.9838C427.815 31.7319 427.793 32.8078 428.434 33.7552L428.765 34.2445L427.723 35.0393C427.15 35.4765 426.573 35.9652 426.442 36.1253C425.983 36.6862 425.86 37.6739 426.174 38.2877C426.245 38.426 426.81 39.2214 427.43 40.0552C428.049 40.8891 428.528 41.5994 428.493 41.6336C428.458 41.6679 428.092 41.957 427.679 42.2762C427.267 42.5953 426.87 42.9491 426.796 43.0625C426.642 43.298 426.617 43.8434 426.748 44.091C426.9 44.379 429.491 47.8282 429.704 48.027C429.876 48.1875 429.982 48.2173 430.377 48.2173H430.845L431.693 47.5777C432.409 47.0368 432.555 46.9545 432.638 47.0448C432.692 47.1034 433.197 47.7743 433.76 48.5355C434.323 49.2969 434.877 50.0114 434.993 50.1234C435.481 50.5989 436.389 50.7841 437.071 50.5472C437.23 50.492 437.838 50.0859 438.422 49.6447C439.006 49.2035 439.521 48.8389 439.567 48.8345C439.613 48.83 439.801 49.0112 439.985 49.2372C440.173 49.4682 440.5 49.751 440.733 49.8833C441.096 50.0895 441.217 50.1183 441.711 50.1156C442.425 50.1119 442.589 50.0276 444.032 48.926C445.414 47.872 445.649 47.6439 445.859 47.1596C446.06 46.6945 446.082 45.9261 445.905 45.5031C445.841 45.3503 444.906 44.0407 443.826 42.5927C442.746 41.1449 441.862 39.9294 441.862 39.8918C441.862 39.8542 443.259 38.7609 444.966 37.4623C446.674 36.1637 449.54 33.9814 451.337 32.6129C454.467 30.2283 454.608 30.1304 454.732 30.2633C454.803 30.3396 455.649 31.464 456.612 32.7621C458.532 35.3509 458.764 35.6288 459.208 35.869C459.58 36.0699 460.562 36.1003 460.977 35.9237C461.121 35.862 461.843 35.3546 462.58 34.7962C464.045 33.6865 464.291 33.4064 464.441 32.673C464.582 31.9855 464.414 31.3853 463.891 30.7184C463.764 30.5562 463.694 30.4035 463.734 30.3758C464.598 29.7703 465.985 28.6193 466.13 28.3873C466.515 27.7703 466.563 26.9286 466.247 26.3163C466.163 26.1532 465.603 25.3662 465.003 24.5674C464.403 23.7686 463.913 23.0929 463.915 23.0659C463.917 23.039 464.274 22.7497 464.709 22.4231C465.66 21.7087 465.813 21.4959 465.773 20.946C465.745 20.5649 465.689 20.477 464.284 18.5976C462.267 15.9003 462.298 15.9122 460.651 17.1734C460.245 17.4849 459.904 17.728 459.893 17.7136C458.606 15.9476 457.449 14.4879 457.222 14.3427C456.681 13.9972 455.949 13.9015 455.39 14.1034ZM460.15 21.7607C462.315 24.6709 464.115 27.0903 464.15 27.1371C464.193 27.1935 463.921 27.4454 463.345 27.8831C462.867 28.2466 462.435 28.5567 462.385 28.5723C462.335 28.5878 462.088 28.3206 461.838 27.9786C461.302 27.2484 460.998 27.014 460.586 27.014C459.873 27.014 459.372 27.6322 459.505 28.3471C459.536 28.5152 459.995 29.1957 460.851 30.3396C461.565 31.2951 462.173 32.1158 462.202 32.1634C462.251 32.2447 460.305 33.7972 460.169 33.7845C460.137 33.7814 459.945 33.5502 459.742 33.2706C459.455 32.8757 448.97 18.7952 448.701 18.4429C448.66 18.3901 449 18.0833 449.649 17.5863C450.204 17.1605 450.686 16.8135 450.719 16.8153C450.753 16.8172 451.229 17.4252 451.778 18.1667C455.13 22.6955 457.509 25.8413 457.679 25.9695C457.966 26.1862 458.472 26.2182 458.794 26.04C459.103 25.8695 459.394 25.3994 459.395 25.0696C459.398 24.6473 459.535 24.8444 455.461 19.4133C454.743 18.4553 454.215 17.6844 454.251 17.6474C454.287 17.6112 454.704 17.288 455.178 16.929C455.859 16.4129 456.058 16.2965 456.127 16.3728C456.175 16.4259 457.985 18.8505 460.15 21.7607ZM462.524 19.94L463.167 20.807L462.918 21.0153C462.782 21.1299 462.636 21.2245 462.595 21.2256C462.554 21.2266 462.234 20.8454 461.884 20.3786L461.249 19.5297L461.544 19.2794C461.706 19.1417 461.849 19.0389 461.861 19.051C461.873 19.0631 462.171 19.4631 462.524 19.94ZM452.691 27.4995C453.03 27.9549 453.297 28.3347 453.285 28.3436C453.187 28.4157 444.228 35.2335 442.591 36.4815C440.811 37.8389 440.484 38.0614 440.398 37.9703C440.342 37.9113 440.04 37.5207 439.727 37.1023C439.289 36.5172 439.178 36.322 439.249 36.2569C439.3 36.2103 440.916 34.9768 442.84 33.5157C444.765 32.0546 447.61 29.8931 449.162 28.7124C450.714 27.5316 452.004 26.5894 452.029 26.6184C452.054 26.6475 452.352 27.044 452.691 27.4995ZM434.079 33.2189C434.983 34.4332 437.545 37.8724 439.773 40.8614C442.001 43.8505 443.814 46.3031 443.802 46.3119C443.688 46.3966 441.878 47.763 441.811 47.8155C441.748 47.8644 441.32 47.3444 440.362 46.0548C439.522 44.9227 438.918 44.1802 438.781 44.1083C438.493 43.9577 438.075 43.96 437.754 44.1141C437.398 44.2854 437.196 44.6469 437.196 45.1161C437.196 45.4712 437.235 45.5525 437.732 46.2339C438.026 46.6381 438.255 46.9807 438.24 46.9952C438.018 47.2077 436.53 48.2802 436.449 48.2858C436.388 48.2901 435.42 47.0621 434.265 45.5145C433.124 43.9862 431.303 41.5456 430.219 40.0911L428.246 37.4465L429.115 36.7792C429.592 36.4123 430.029 36.112 430.086 36.112C430.143 36.112 431.097 37.3282 432.206 38.8147C433.316 40.3013 434.455 41.8258 434.737 42.2027C435.282 42.9307 435.567 43.1462 435.992 43.1509C436.26 43.1539 436.703 42.9307 436.874 42.7069C437.056 42.4677 437.135 42.0207 437.045 41.7427C436.998 41.5998 436.275 40.5657 435.439 39.4446C434.602 38.3235 433.077 36.2815 432.049 34.9068C430.315 32.5864 430.191 32.4001 430.321 32.306C430.398 32.2503 430.867 31.8951 431.364 31.5167C432.052 30.9921 432.287 30.8503 432.351 30.9198C432.397 30.97 433.175 32.0045 434.079 33.2189ZM430.521 44.1887C430.844 44.6284 431.124 45.0309 431.144 45.0832C431.177 45.1721 430.835 45.4852 430.654 45.5317C430.609 45.5432 430.286 45.1757 429.936 44.7151L429.301 43.8777L429.58 43.6314C429.733 43.4959 429.876 43.386 429.896 43.3871C429.917 43.3883 430.198 43.749 430.521 44.1887Z" fill="#A1044A"/>
<path fill-rule="evenodd" clip-rule="evenodd" d="M477.985 1.2536C476.625 1.38539 474.681 1.84379 473.482 2.31559C471.469 3.10777 468.703 4.87636 468.272 5.64661C468.147 5.87098 468.116 6.02439 468.143 6.30304C468.207 6.98094 468.677 7.39838 469.378 7.40196C469.737 7.40387 469.806 7.37113 470.356 6.94135C471.29 6.21183 472.308 5.5621 473.206 5.12357C478.579 2.49839 484.919 3.45167 488.929 7.48746C491.308 9.88226 492.578 13.1501 492.583 16.8901C492.585 18.2213 492.498 18.9743 492.214 20.1073C491.037 24.808 487.627 29.5757 480.006 37.1797C473.424 43.7468 470.065 46.6201 467.41 47.955C466.536 48.3947 466.001 48.5577 465.428 48.559C463.783 48.5627 460.911 46.8504 457.327 43.7293C455.97 42.5478 455.423 42.029 453.431 40.036C452.529 39.1344 451.734 38.3732 451.662 38.3446C451.362 38.2242 450.767 38.2801 450.509 38.4532C450.144 38.6976 449.886 39.2544 449.952 39.6522C450.022 40.0731 450.908 41.0566 453.123 43.1723C457.618 47.4645 460.699 49.6894 463.512 50.6724C464.308 50.9509 464.349 50.957 465.417 50.9547C466.402 50.9527 466.568 50.9322 467.123 50.7444C469.157 50.0569 471.919 48.1336 475.501 44.91C478.603 42.1194 484.292 36.4175 486.82 33.5659C491.2 28.6269 493.638 24.5458 494.609 20.5302C494.916 19.2585 495.003 18.4585 495 16.9117C494.997 14.8893 494.776 13.4329 494.205 11.6717C492.451 6.26102 488.032 2.46649 482.274 1.4268C481.425 1.27347 478.852 1.16955 477.985 1.2536ZM449.538 1.48421C444.771 1.97223 440.525 4.51732 438.043 8.37518C436.929 10.1072 436.219 12.0218 435.832 14.3421C435.612 15.6595 435.594 18.2063 435.798 19.3625C436.189 21.5885 436.788 23.3789 437.875 25.5674C438.426 26.6766 438.627 26.8803 439.209 26.9181C439.987 26.9686 440.507 26.5138 440.507 25.7835C440.507 25.4804 440.42 25.2365 440.028 24.4434C438.518 21.3906 437.946 18.9047 438.105 16.0887C438.37 11.4257 440.715 7.63196 444.665 5.4776C445.681 4.92326 447.12 4.41027 448.477 4.11822C449.358 3.92842 449.555 3.91403 451.269 3.91403C452.992 3.91403 453.177 3.92773 454.091 4.12309C456.085 4.54914 457.856 5.2929 459.442 6.37057C461.761 7.94609 463.143 9.58633 467.788 16.279C472.002 22.3494 473.833 24.5921 476.291 26.6903C478.096 28.2304 480.662 29.6413 481.619 29.6193C482.756 29.5931 483.16 28.0669 482.202 27.4137C482.064 27.3193 481.829 27.2086 481.68 27.1677C480.76 26.9153 478.834 25.6789 477.466 24.4635C475.416 22.6407 473.696 20.5104 470.122 15.3654C466.253 9.796 464.783 7.87719 463.148 6.25926C460.473 3.61201 456.995 1.94528 453.235 1.50941C452.633 1.4396 450.14 1.42262 449.538 1.48421ZM455.39 14.1034C455.048 14.2269 455.007 14.2547 453.828 15.1645L452.887 15.8902L452.673 15.6469C451.823 14.6798 451.623 14.5679 450.742 14.5676C450.259 14.5674 450.039 14.6023 449.842 14.7101C449.475 14.9115 447.212 16.6411 446.949 16.9217C446.43 17.4745 446.266 18.4735 446.578 19.1721C446.663 19.3606 447.615 20.7007 448.694 22.1501L450.656 24.7856L449.1 25.9658C447.912 26.8667 439.44 33.3157 438.056 34.3723L437.824 34.5491L436.195 32.3613C433.638 28.9293 433.75 29.0639 433.255 28.8081C432.702 28.5217 432.01 28.4964 431.467 28.7429C431.114 28.9025 428.793 30.6518 428.492 30.9838C427.815 31.7319 427.793 32.8078 428.434 33.7552L428.765 34.2445L427.723 35.0393C427.15 35.4765 426.573 35.9652 426.442 36.1253C425.983 36.6862 425.86 37.6739 426.174 38.2877C426.245 38.426 426.81 39.2214 427.43 40.0552C428.049 40.8891 428.528 41.5994 428.493 41.6336C428.458 41.6679 428.092 41.957 427.679 42.2762C427.267 42.5953 426.87 42.9491 426.796 43.0625C426.642 43.298 426.617 43.8434 426.748 44.091C426.9 44.379 429.491 47.8282 429.704 48.027C429.876 48.1875 429.982 48.2173 430.377 48.2173H430.845L431.693 47.5777C432.409 47.0368 432.555 46.9545 432.638 47.0448C432.692 47.1034 433.197 47.7743 433.76 48.5355C434.323 49.2969 434.877 50.0114 434.993 50.1234C435.481 50.5989 436.389 50.7841 437.071 50.5472C437.23 50.492 437.838 50.0859 438.422 49.6447C439.006 49.2035 439.521 48.8389 439.567 48.8345C439.613 48.83 439.801 49.0112 439.985 49.2372C440.173 49.4682 440.5 49.751 440.733 49.8833C441.096 50.0895 441.217 50.1183 441.711 50.1156C442.425 50.1119 442.589 50.0276 444.032 48.926C445.414 47.872 445.649 47.6439 445.859 47.1596C446.06 46.6945 446.082 45.9261 445.905 45.5031C445.841 45.3503 444.906 44.0407 443.826 42.5927C442.746 41.1449 441.862 39.9294 441.862 39.8918C441.862 39.8542 443.259 38.7609 444.966 37.4623C446.674 36.1637 449.54 33.9814 451.337 32.6129C454.467 30.2283 454.608 30.1304 454.732 30.2633C454.803 30.3396 455.649 31.464 456.612 32.7621C458.532 35.3509 458.764 35.6288 459.208 35.869C459.58 36.0699 460.562 36.1003 460.977 35.9237C461.121 35.862 461.843 35.3546 462.58 34.7962C464.045 33.6865 464.291 33.4064 464.441 32.673C464.582 31.9855 464.414 31.3853 463.891 30.7184C463.764 30.5562 463.694 30.4035 463.734 30.3758C464.598 29.7703 465.985 28.6193 466.13 28.3873C466.515 27.7703 466.563 26.9286 466.247 26.3163C466.163 26.1532 465.603 25.3662 465.003 24.5674C464.403 23.7686 463.913 23.0929 463.915 23.0659C463.917 23.039 464.274 22.7497 464.709 22.4231C465.66 21.7087 465.813 21.4959 465.773 20.946C465.745 20.5649 465.689 20.477 464.284 18.5976C462.267 15.9003 462.298 15.9122 460.651 17.1734C460.245 17.4849 459.904 17.728 459.893 17.7136C458.606 15.9476 457.449 14.4879 457.222 14.3427C456.681 13.9972 455.949 13.9015 455.39 14.1034ZM460.15 21.7607C462.315 24.6709 464.115 27.0903 464.15 27.1371C464.193 27.1935 463.921 27.4454 463.345 27.8831C462.867 28.2466 462.435 28.5567 462.385 28.5723C462.335 28.5878 462.088 28.3206 461.838 27.9786C461.302 27.2484 460.998 27.014 460.586 27.014C459.873 27.014 459.372 27.6322 459.505 28.3471C459.536 28.5152 459.995 29.1957 460.851 30.3396C461.565 31.2951 462.173 32.1158 462.202 32.1634C462.251 32.2447 460.305 33.7972 460.169 33.7845C460.137 33.7814 459.945 33.5502 459.742 33.2706C459.455 32.8757 448.97 18.7952 448.701 18.4429C448.66 18.3901 449 18.0833 449.649 17.5863C450.204 17.1605 450.686 16.8135 450.719 16.8153C450.753 16.8172 451.229 17.4252 451.778 18.1667C455.13 22.6955 457.509 25.8413 457.679 25.9695C457.966 26.1862 458.472 26.2182 458.794 26.04C459.103 25.8695 459.394 25.3994 459.395 25.0696C459.398 24.6473 459.535 24.8444 455.461 19.4133C454.743 18.4553 454.215 17.6844 454.251 17.6474C454.287 17.6112 454.704 17.288 455.178 16.929C455.859 16.4129 456.058 16.2965 456.127 16.3728C456.175 16.4259 457.985 18.8505 460.15 21.7607ZM462.524 19.94L463.167 20.807L462.918 21.0153C462.782 21.1299 462.636 21.2245 462.595 21.2256C462.554 21.2266 462.234 20.8454 461.884 20.3786L461.249 19.5297L461.544 19.2794C461.706 19.1417 461.849 19.0389 461.861 19.051C461.873 19.0631 462.171 19.4631 462.524 19.94ZM452.691 27.4995C453.03 27.9549 453.297 28.3347 453.285 28.3436C453.187 28.4157 444.228 35.2335 442.591 36.4815C440.811 37.8389 440.484 38.0614 440.398 37.9703C440.342 37.9113 440.04 37.5207 439.727 37.1023C439.289 36.5172 439.178 36.322 439.249 36.2569C439.3 36.2103 440.916 34.9768 442.84 33.5157C444.765 32.0546 447.61 29.8931 449.162 28.7124C450.714 27.5316 452.004 26.5894 452.029 26.6184C452.054 26.6475 452.352 27.044 452.691 27.4995ZM434.079 33.2189C434.983 34.4332 437.545 37.8724 439.773 40.8614C442.001 43.8505 443.814 46.3031 443.802 46.3119C443.688 46.3966 441.878 47.763 441.811 47.8155C441.748 47.8644 441.32 47.3444 440.362 46.0548C439.522 44.9227 438.918 44.1802 438.781 44.1083C438.493 43.9577 438.075 43.96 437.754 44.1141C437.398 44.2854 437.196 44.6469 437.196 45.1161C437.196 45.4712 437.235 45.5525 437.732 46.2339C438.026 46.6381 438.255 46.9807 438.24 46.9952C438.018 47.2077 436.53 48.2802 436.449 48.2858C436.388 48.2901 435.42 47.0621 434.265 45.5145C433.124 43.9862 431.303 41.5456 430.219 40.0911L428.246 37.4465L429.115 36.7792C429.592 36.4123 430.029 36.112 430.086 36.112C430.143 36.112 431.097 37.3282 432.206 38.8147C433.316 40.3013 434.455 41.8258 434.737 42.2027C435.282 42.9307 435.567 43.1462 435.992 43.1509C436.26 43.1539 436.703 42.9307 436.874 42.7069C437.056 42.4677 437.135 42.0207 437.045 41.7427C436.998 41.5998 436.275 40.5657 435.439 39.4446C434.602 38.3235 433.077 36.2815 432.049 34.9068C430.315 32.5864 430.191 32.4001 430.321 32.306C430.398 32.2503 430.867 31.8951 431.364 31.5167C432.052 30.9921 432.287 30.8503 432.351 30.9198C432.397 30.97 433.175 32.0045 434.079 33.2189ZM430.521 44.1887C430.844 44.6284 431.124 45.0309 431.144 45.0832C431.177 45.1721 430.835 45.4852 430.654 45.5317C430.609 45.5432 430.286 45.1757 429.936 44.7151L429.301 43.8777L429.58 43.6314C429.733 43.4959 429.876 43.386 429.896 43.3871C429.917 43.3883 430.198 43.749 430.521 44.1887Z" stroke="#A1044A" mask="url(#path-1-outside-1_1645_862)"/>
<path d="M0.632812 49.9997V5.96771H3.96081L22.9688 37.1357H20.6008L39.6088 5.96771H42.9368V49.9997H38.2008V14.1597L39.2888 14.4157L23.4168 40.4637H20.0888L4.21681 14.4157L5.30481 14.1597V49.9997H0.632812Z" fill="url(#paint0_linear_1645_862)"/>
<path d="M55.4128 49.9997V5.96771H60.0848V49.9997H55.4128Z" fill="url(#paint1_linear_1645_862)"/>
<path d="M83.9153 50.6397C80.502 50.6397 77.558 49.9997 75.0833 48.7197C72.6086 47.397 70.4326 45.5624 68.5553 43.2157L71.8193 40.0157C73.3126 42.1064 75.0406 43.6637 77.0033 44.6877C79.0086 45.7117 81.3766 46.2237 84.1073 46.2237C86.9233 46.2237 89.206 45.5837 90.9553 44.3037C92.7046 43.0237 93.5793 41.253 93.5793 38.9917C93.5793 37.2424 93.174 35.813 92.3633 34.7037C91.5526 33.5517 90.486 32.6344 89.1633 31.9517C87.8833 31.2264 86.454 30.5864 84.8753 30.0317C83.2966 29.477 81.718 28.901 80.1393 28.3037C78.6033 27.6637 77.174 26.8744 75.8513 25.9357C74.5286 24.997 73.462 23.8024 72.6513 22.3517C71.8833 20.901 71.4993 19.045 71.4993 16.7837C71.4993 14.3944 72.0753 12.3464 73.2273 10.6397C74.3793 8.93305 75.958 7.63171 77.9633 6.73571C79.9686 5.79705 82.2513 5.32771 84.8113 5.32771C87.67 5.32771 90.2086 5.88238 92.4273 6.99171C94.6886 8.10105 96.566 9.59438 98.0593 11.4717L94.8593 14.6717C93.494 13.0504 92.0006 11.813 90.3793 10.9597C88.758 10.1064 86.8593 9.67971 84.6833 9.67971C82.1233 9.67971 80.0753 10.277 78.5393 11.4717C77.0033 12.6664 76.2353 14.3304 76.2353 16.4637C76.2353 18.1277 76.6193 19.4717 77.3873 20.4957C78.198 21.5197 79.2646 22.373 80.5873 23.0557C81.91 23.7384 83.3393 24.357 84.8753 24.9117C86.454 25.4237 88.0326 25.9997 89.6113 26.6397C91.19 27.2797 92.6193 28.0904 93.8993 29.0717C95.222 30.053 96.2886 31.3117 97.0993 32.8477C97.91 34.341 98.3153 36.261 98.3153 38.6077C98.3153 42.405 97.014 45.3704 94.4113 47.5037C91.8513 49.5944 88.3526 50.6397 83.9153 50.6397Z" fill="url(#paint2_linear_1645_862)"/>
<path d="M111.481 30.2877V26.3197H124.281C127.182 26.3197 129.401 25.5944 130.937 24.1437C132.473 22.6504 133.241 20.6664 133.241 18.1917C133.241 15.8024 132.473 13.861 130.937 12.3677C129.401 10.8317 127.182 10.0637 124.281 10.0637H111.481V5.96771H124.281C127.139 5.96771 129.593 6.50105 131.641 7.56771C133.689 8.59171 135.246 10.021 136.313 11.8557C137.422 13.6904 137.977 15.781 137.977 18.1277C137.977 20.5597 137.422 22.693 136.313 24.5277C135.246 26.3624 133.689 27.7917 131.641 28.8157C129.593 29.797 127.139 30.2877 124.281 30.2877H111.481ZM108.473 49.9997V5.96771H113.145V49.9997H108.473ZM135.097 49.9997L118.585 29.6477L123.129 28.1757L141.113 49.9997H135.097Z" fill="url(#paint3_linear_1645_862)"/>
<path d="M144.676 49.9997L162.724 5.96771H166.244L184.1 49.9997H179.044L163.492 11.0877H165.348L149.668 49.9997H144.676ZM152.932 38.5437V34.3837H175.972V38.5437H152.932Z" fill="url(#paint4_linear_1645_862)"/>
<path d="M198.784 33.2957V26.1917H209.216C210.581 26.1917 211.818 25.9144 212.928 25.3597C214.037 24.805 214.912 24.0157 215.552 22.9917C216.192 21.925 216.512 20.645 216.512 19.1517C216.512 17.701 216.192 16.4424 215.552 15.3757C214.912 14.309 214.037 13.4984 212.928 12.9437C211.818 12.389 210.581 12.1117 209.216 12.1117H198.784V5.00771H210.112C212.97 5.00771 215.53 5.58371 217.792 6.73571C220.096 7.88771 221.909 9.53038 223.232 11.6637C224.554 13.7544 225.216 16.2504 225.216 19.1517C225.216 22.053 224.554 24.5704 223.232 26.7037C221.909 28.7944 220.096 30.4157 217.792 31.5677C215.53 32.7197 212.97 33.2957 210.112 33.2957H198.784ZM192.384 49.9997V5.00771H201.088V49.9997H192.384Z" fill="url(#paint5_linear_1645_862)"/>
<path d="M254.157 50.7037C250.872 50.7037 247.8 50.1064 244.941 48.9117C242.125 47.717 239.651 46.0744 237.517 43.9837C235.427 41.8504 233.784 39.3757 232.589 36.5597C231.395 33.701 230.797 30.6504 230.797 27.4077C230.797 24.165 231.373 21.157 232.525 18.3837C233.72 15.5677 235.363 13.1144 237.453 11.0237C239.587 8.89038 242.061 7.24771 244.877 6.09571C247.693 4.90104 250.744 4.30371 254.029 4.30371C257.357 4.30371 260.429 4.90104 263.245 6.09571C266.061 7.24771 268.515 8.89038 270.605 11.0237C272.739 13.1144 274.403 15.5677 275.597 18.3837C276.792 21.1997 277.389 24.229 277.389 27.4717C277.389 30.7144 276.792 33.7437 275.597 36.5597C274.403 39.3757 272.739 41.8504 270.605 43.9837C268.515 46.0744 266.061 47.717 263.245 48.9117C260.472 50.1064 257.443 50.7037 254.157 50.7037ZM254.029 42.5757C256.931 42.5757 259.448 41.9357 261.581 40.6557C263.715 39.3757 265.379 37.605 266.573 35.3437C267.811 33.0824 268.429 30.437 268.429 27.4077C268.429 25.189 268.088 23.1624 267.405 21.3277C266.723 19.493 265.741 17.9144 264.461 16.5917C263.181 15.2264 261.667 14.181 259.917 13.4557C258.168 12.7304 256.205 12.3677 254.029 12.3677C251.213 12.3677 248.717 13.0077 246.541 14.2877C244.408 15.525 242.723 17.2744 241.485 19.5357C240.291 21.797 239.693 24.421 239.693 27.4077C239.693 29.669 240.035 31.7384 240.717 33.6157C241.443 35.493 242.424 37.093 243.661 38.4157C244.941 39.7384 246.456 40.7624 248.205 41.4877C249.997 42.213 251.939 42.5757 254.029 42.5757Z" fill="url(#paint6_linear_1645_862)"/>
<path d="M295.148 49.9997L280.556 5.00771H289.132L299.948 39.6317H297.068L307.692 5.00771H314.156L324.78 39.6317H321.836L332.716 5.00771H341.292L326.636 49.9997H320.172L309.484 15.4397H312.3L301.676 49.9997H295.148Z" fill="url(#paint7_linear_1645_862)"/>
<path d="M348.536 49.9997V5.00771H357.24V49.9997H348.536ZM354.936 49.9997V42.3197H379.832V49.9997H354.936ZM354.936 30.7357V23.3117H377.592V30.7357H354.936ZM354.936 12.6877V5.00771H379.512V12.6877H354.936Z" fill="url(#paint8_linear_1645_862)"/>
<path d="M394.716 31.1837V24.3997H405.148C407.282 24.3997 408.924 23.8664 410.076 22.7997C411.271 21.6904 411.868 20.1757 411.868 18.2557C411.868 16.5064 411.271 15.0557 410.076 13.9037C408.924 12.709 407.282 12.1117 405.148 12.1117H394.716V5.00771H405.916C408.818 5.00771 411.356 5.58371 413.532 6.73571C415.751 7.84504 417.458 9.38104 418.652 11.3437C419.89 13.3064 420.508 15.5677 420.508 18.1277C420.508 20.773 419.89 23.077 418.652 25.0397C417.458 26.9597 415.751 28.4744 413.532 29.5837C411.314 30.6504 408.732 31.1837 405.788 31.1837H394.716ZM388.316 49.9997V5.00771H397.02V49.9997H388.316ZM412.892 49.9997L398.044 30.5437L406.044 28.0477L423.452 49.9997H412.892Z" fill="url(#paint9_linear_1645_862)"/>
<defs>
<linearGradient id="paint0_linear_1645_862" x1="-94" y1="19.4926" x2="441" y2="19.5777" gradientUnits="userSpaceOnUse">
<stop stop-color="#FA2C87"/>
<stop offset="1" stop-color="#9B0246"/>
</linearGradient>
<linearGradient id="paint1_linear_1645_862" x1="-94" y1="19.4926" x2="441" y2="19.5777" gradientUnits="userSpaceOnUse">
<stop stop-color="#FA2C87"/>
<stop offset="1" stop-color="#9B0246"/>
</linearGradient>
<linearGradient id="paint2_linear_1645_862" x1="-94" y1="19.4926" x2="441" y2="19.5777" gradientUnits="userSpaceOnUse">
<stop stop-color="#FA2C87"/>
<stop offset="1" stop-color="#9B0246"/>
</linearGradient>
<linearGradient id="paint3_linear_1645_862" x1="-94" y1="19.4926" x2="441" y2="19.5777" gradientUnits="userSpaceOnUse">
<stop stop-color="#FA2C87"/>
<stop offset="1" stop-color="#9B0246"/>
</linearGradient>
<linearGradient id="paint4_linear_1645_862" x1="-94" y1="19.4926" x2="441" y2="19.5777" gradientUnits="userSpaceOnUse">
<stop stop-color="#FA2C87"/>
<stop offset="1" stop-color="#9B0246"/>
</linearGradient>
<linearGradient id="paint5_linear_1645_862" x1="-94" y1="19.4926" x2="441" y2="19.5777" gradientUnits="userSpaceOnUse">
<stop stop-color="#FA2C87"/>
<stop offset="1" stop-color="#9B0246"/>
</linearGradient>
<linearGradient id="paint6_linear_1645_862" x1="-94" y1="19.4926" x2="441" y2="19.5777" gradientUnits="userSpaceOnUse">
<stop stop-color="#FA2C87"/>
<stop offset="1" stop-color="#9B0246"/>
</linearGradient>
<linearGradient id="paint7_linear_1645_862" x1="-94" y1="19.4926" x2="441" y2="19.5777" gradientUnits="userSpaceOnUse">
<stop stop-color="#FA2C87"/>
<stop offset="1" stop-color="#9B0246"/>
</linearGradient>
<linearGradient id="paint8_linear_1645_862" x1="-94" y1="19.4926" x2="441" y2="19.5777" gradientUnits="userSpaceOnUse">
<stop stop-color="#FA2C87"/>
<stop offset="1" stop-color="#9B0246"/>
</linearGradient>
<linearGradient id="paint9_linear_1645_862" x1="-94" y1="19.4926" x2="441" y2="19.5777" gradientUnits="userSpaceOnUse">
<stop stop-color="#FA2C87"/>
<stop offset="1" stop-color="#9B0246"/>
</linearGradient>
</defs>
</svg>
